<svg xmlns="http://www.w3.org/2000/svg" viewBox="0 0 100 100">
    <path fill="#f1bc19" d="M77 12a1 1 0 1 0 0 2 1 1 0 1 0 0-2Z" />
    <path fill="#e6edb7" d="M50 13a37 37 0 1 0 0 74 37 37 0 1 0 0-74Z" />
    <path fill="#f1bc19" d="M83 11a4 4 0 1 0 0 8 4 4 0 1 0 0-8Z" />
    <path fill="#88ae45" d="M87 22a2 2 0 1 0 0 4 2 2 0 1 0 0-4Z" />
    <path fill="#fbcd59" d="M81 74a2 2 0 1 0 0 4 2 2 0 1 0 0-4zM15 59a4 4 0 1 0 0 8 4 4 0 1 0 0-8z" />
    <path fill="#88ae45" d="M25 85a2 2 0 1 0 0 4 2 2 0 1 0 0-4Z" />
    <path fill="#fff"
        d="M18.5 49a2.5 2.5 0 1 0 0 5 2.5 2.5 0 1 0 0-5zm61-17a1.5 1.5 0 1 0 0 3 1.5 1.5 0 1 0 0-3z" />
    <path fill="#d38b5d"
        d="M33.16 73.3a.46.46 0 0 1-.46-.46v-9.68c0-.26.2-.46.46-.46h4.68c.26 0 .46.2.46.46v9.68c0 .26-.2.46-.46.46h-4.68z" />
    <path fill="#472b29"
        d="M37.6 63.4v9.2h-4.2v-9.2h4.2m.24-1.4h-4.68c-.64 0-1.16.52-1.16 1.16v9.68c0 .64.52 1.16 1.16 1.16h4.68c.64 0 1.16-.52 1.16-1.16v-9.68c0-.64-.52-1.16-1.16-1.16z" />
    <path fill="#d38b5d"
        d="M63.03 73.3a.33.33 0 0 1-.33-.33v-9.94c0-.18.15-.33.33-.33h4.94c.18 0 .33.15.33.33v9.94c0 .18-.15.33-.33.33h-4.94z" />
    <path fill="#472b29"
        d="M67.6 63.4v9.2h-4.2v-9.2h4.2m.37-1.4h-4.94c-.57 0-1.03.46-1.03 1.03v9.94c0 .57.46 1.03 1.03 1.03h4.94c.57 0 1.03-.46 1.03-1.03v-9.94c0-.57-.46-1.03-1.03-1.03z" />
    <path fill="#f9e65c"
        d="M34.7 57.24a.25.25 0 0 1-.1-.03l-5.38-2.9a.25.25 0 0 1-.12-.15.25.25 0 0 1 .02-.2L41.08 31.9a.25.25 0 0 1 .34-.1l5.37 2.9c.12.07.16.22.1.34L34.93 57.11a.25.25 0 0 1-.22.13z" />
    <path fill="#472b29"
        d="m41.47 32.62 4.58 2.48-11.52 21.28-4.58-2.48 11.52-21.28m-.18-1.56a.95.95 0 0 0-.83.5L28.5 53.63a.95.95 0 0 0 .38 1.29l5.37 2.9a.94.94 0 0 0 1.28-.38L47.5 35.37a.95.95 0 0 0-.38-1.29l-5.37-2.9a.96.96 0 0 0-.45-.12z" />
    <path fill="#78cdd4"
        d="M47.98 57.3a.28.28 0 0 1-.28-.28V29.98c0-.15.13-.28.28-.28h6.04c.15 0 .28.13.28.28v27.04c0 .15-.13.28-.28.28h-6.04z" />
    <path fill="#472b29"
        d="M53.6 30.4v26.2h-5.2V30.4h5.2m.42-1.4h-6.04a.98.98 0 0 0-.98.98v27.04c0 .54.44.98.98.98h6.04c.54 0 .98-.44.98-.98V29.98a.98.98 0 0 0-.98-.98z" />
    <path fill="#afabd4"
        d="M62.8 57.3a.1.1 0 0 1-.1-.1V32.8c0-.05.05-.1.1-.1h4.4c.05 0 .1.05.1.1v24.4a.1.1 0 0 1-.1.1h-4.4z" />
    <path fill="#472b29"
        d="M66.6 33.4v23.2h-3.2V33.4h3.2m.6-1.4h-4.4a.8.8 0 0 0-.8.8v24.4c0 .44.36.8.8.8h4.4a.8.8 0 0 0 .8-.8V32.8a.8.8 0 0 0-.8-.8z" />
    <path fill="#ea5167"
        d="M55.13 57.3a.43.43 0 0 1-.43-.43V25.13c0-.24.2-.43.43-.43h6.74c.24 0 .43.2.43.43v31.74c0 .24-.2.43-.43.43h-6.74z" />
    <path fill="#472b29"
        d="M61.6 25.4v31.2h-6.2V25.4h6.2m.27-1.4h-6.74c-.62 0-1.13.5-1.13 1.13v31.74c0 .63.5 1.13 1.13 1.13h6.74c.62 0 1.13-.5 1.13-1.13V25.13c0-.63-.5-1.13-1.13-1.13z" />
    <path fill="#d38b5d"
        d="M27.12 63.3a.42.42 0 0 1-.42-.42v-4.76c0-.23.19-.42.42-.42h45.76c.23 0 .42.19.42.42v4.76c0 .23-.19.42-.42.42H27.12z" />
    <path fill="#472b29"
        d="M72.6 58.4v4.2H27.4v-4.2h45.2m.28-1.4H27.12c-.62 0-1.12.5-1.12 1.12v4.76c0 .62.5 1.12 1.12 1.12h45.76c.62 0 1.12-.5 1.12-1.12v-4.76c0-.62-.5-1.12-1.12-1.12zM56.5 29h-2a.5.5 0 0 1 0-1h2a.5.5 0 0 1 0 1zm6 0h-4a.5.5 0 0 1 0-1h4a.5.5 0 0 1 0 1z" />
    <path fill="#472b29"
        d="M32.5 61h-6a.5.5 0 0 1 0-1h6a.5.5 0 0 1 0 1zm5 0h-2a.5.5 0 0 1 0-1h2a.5.5 0 0 1 0 1zm32 0h-29a.5.5 0 0 1 0-1h29a.5.5 0 0 1 0 1zm-13-7h-2a.5.5 0 0 1 0-1h2a.5.5 0 0 1 0 1zm6 0h-4a.5.5 0 0 1 0-1h4a.5.5 0 0 1 0 1zm-8-21h-4a.5.5 0 0 1 0-1h4a.5.5 0 0 1 0 1zm-11.3 3.44a.5.5 0 0 1-.24-.06l-3.52-1.9a.5.5 0 0 1 .48-.88l3.52 1.9a.5.5 0 0 1-.24.94zm-9.52 17.59a.5.5 0 0 1-.24-.06l-3.52-1.9a.5.5 0 0 1 .48-.88l3.52 1.9a.5.5 0 0 1-.24.94zM67.5 36h-3a.5.5 0 0 1 0-1h3a.5.5 0 0 1 0 1zm0 19h-3a.5.5 0 0 1 0-1h3a.5.5 0 0 1 0 1zm-13 0h-4a.5.5 0 0 1 0-1h4a.5.5 0 0 1 0 1z" />
</svg>
